<?xml version="1.0" standalone="no"?>
<!DOCTYPE svg PUBLIC "-//W3C//DTD SVG 20010904//EN"
 "http://www.w3.org/TR/2001/REC-SVG-20010904/DTD/svg10.dtd">
<svg version="1.0" xmlns="http://www.w3.org/2000/svg"
 width="2500.000000pt" height="2500.000000pt" viewBox="0 0 2500.000000 2500.000000"
 preserveAspectRatio="xMidYMid meet">
<metadata>
Created by potrace 1.16, written by Peter Selinger 2001-2019
</metadata>
<g transform="translate(0.000000,2500.000000) scale(0.100000,-0.100000)"
fill="#000000" stroke="none">
<path d="M13070 24954 c-105 -9 -490 -35 -544 -37 l-60 -2 -42 -120 c-23 -66
-181 -511 -349 -990 -169 -478 -655 -1844 -1080 -3035 -773 -2166 -1195 -3353
-1195 -3364 0 -3 417 -6 928 -6 919 0 1099 -5 1256 -35 476 -90 833 -338 1024
-713 108 -210 153 -395 160 -653 9 -338 -23 -496 -202 -999 -48 -135 -440
-1233 -871 -2440 -793 -2223 -1040 -2916 -1454 -4080 l-229 -645 -1269 -2
c-1312 -3 -1373 -1 -1365 36 1 7 172 482 378 1055 207 572 602 1676 879 2451
695 1948 1627 4566 1633 4588 4 16 -33 17 -684 17 l-689 0 -38 -91 c-21 -50
-78 -204 -127 -342 -89 -255 -333 -940 -1395 -3917 -1001 -2805 -1278 -3582
-1305 -3665 -15 -44 -39 -92 -53 -107 l-25 -28 -1265 0 c-1263 0 -1376 3
-1364 33 114 301 1751 4885 3537 9902 600 1684 1522 4264 2035 5693 230 639
416 1165 412 1168 -8 9 -291 -58 -567 -132 -1001 -272 -1967 -678 -2875 -1207
-2231 -1301 -4028 -3277 -5085 -5592 -213 -467 -452 -1110 -604 -1625 -303
-1025 -475 -2111 -527 -3335 -11 -273 -10 -316 22 -800 67 -1024 172 -1719
384 -2550 459 -1797 1362 -3536 2574 -4955 316 -370 784 -851 1131 -1164 876
-789 1791 -1411 2850 -1935 734 -364 1513 -659 2268 -860 l113 -30 8 22 c56
148 2756 7723 4611 12937 754 2120 1391 3897 1415 3948 l44 92 2273 -3 c2501
-3 2318 1 2572 -63 414 -104 742 -320 941 -618 151 -228 202 -423 192 -741 -8
-269 -26 -339 -229 -930 -318 -926 -675 -1939 -1213 -3445 -202 -564 -535
-1497 -741 -2075 -206 -577 -387 -1081 -401 -1120 -149 -401 -504 -732 -944
-878 -185 -62 -286 -78 -569 -88 -140 -5 -824 -8 -1519 -8 -694 0 -1264 -1
-1266 -3 -3 -5 -1216 -3401 -1835 -5143 -303 -852 -607 -1705 -674 -1895 -92
-258 -120 -347 -110 -352 38 -23 149 -41 254 -41 426 -3 926 12 1105 32 105
11 289 30 410 41 1808 167 3606 754 5170 1688 352 210 630 392 930 611 762
554 1470 1200 2092 1911 826 944 1505 2013 2016 3170 557 1262 901 2635 1021
4075 10 116 12 197 6 255 -26 256 -34 695 -20 1134 15 504 16 467 -10 731
-121 1215 -402 2373 -848 3485 -1020 2546 -2900 4717 -5287 6107 -427 249
-1007 536 -1491 738 -1092 457 -2339 770 -3549 890 -88 9 -198 23 -245 31 -85
14 -344 25 -430 18z"/>
<path d="M17635 15987 c-17 -8 -35 -20 -42 -28 -11 -14 -160 -430 -1113 -3104
-241 -676 -657 -1843 -924 -2592 -267 -749 -486 -1366 -486 -1372 0 -12 1071
-16 1267 -4 l111 6 97 281 c340 981 606 1734 1240 3506 872 2435 1178 3301
1169 3309 -3 3 -294 7 -647 9 -524 2 -648 0 -672 -11z"/>
</g>
</svg>
