<?xml version="1.0" standalone="no"?>
<!DOCTYPE svg PUBLIC "-//W3C//DTD SVG 20010904//EN"
 "http://www.w3.org/TR/2001/REC-SVG-20010904/DTD/svg10.dtd">
<svg version="1.0" xmlns="http://www.w3.org/2000/svg"
 width="2500.000000pt" height="2500.000000pt" viewBox="0 0 2500.000000 2500.000000"
 preserveAspectRatio="xMidYMid meet">
<metadata>
Created by potrace 1.16, written by Peter Selinger 2001-2019
</metadata>
<g transform="translate(0.000000,2500.000000) scale(0.100000,-0.100000)"
fill="#000000" stroke="none">
<path d="M403 19222 c-13 -2 -23 -8 -23 -14 0 -6 467 -1068 1037 -2360 724
-1642 1039 -2344 1045 -2334 13 23 2060 4678 2065 4696 4 13 -229 15 -2049 15
-1129 0 -2063 -1 -2075 -3z"/>
<path d="M9900 12640 l0 -6590 2329 0 c2557 0 2428 -3 2688 60 461 111 862
372 1169 760 169 214 320 529 383 800 58 250 55 154 59 1905 2 1078 0 1659 -8
1759 -31 445 -198 863 -481 1208 -189 230 -444 426 -689 529 -41 17 -79 35
-84 39 -5 5 23 25 62 44 281 141 592 421 765 686 115 177 193 365 239 576 22
98 22 107 25 1439 3 919 1 1376 -7 1455 -37 397 -177 760 -416 1080 -339 455
-887 767 -1456 829 -66 8 -825 11 -2338 11 l-2240 0 0 -6590z m3405 5450 c138
-20 310 -90 430 -175 33 -24 92 -76 131 -116 122 -127 187 -241 241 -416 l26
-88 8 -495 c4 -272 7 -919 8 -1436 1 -1039 1 -1044 -61 -1192 -65 -157 -194
-307 -335 -391 -37 -22 -111 -55 -163 -73 l-95 -32 -470 -7 c-258 -4 -590 -7
-737 -8 l-268 -1 0 2213 c0 1218 3 2217 7 2220 10 11 1200 8 1278 -3z m106
-5625 c351 -61 637 -299 754 -625 63 -178 58 -28 62 -2025 3 -1301 1 -1838 -7
-1885 -54 -314 -287 -565 -605 -652 -78 -21 -97 -22 -837 -26 l-758 -4 0 2616
0 2616 654 0 c530 0 669 -3 737 -15z"/>
<path d="M6928 19212 l-1068 -2 0 -5698 c0 -3791 -4 -5727 -10 -5787 -50 -437
-358 -773 -789 -860 -115 -24 -525 -17 -621 10 -301 83 -545 297 -661 579 -77
187 -72 103 -76 1413 l-4 1173 -1125 2 -1125 3 4 -975 c3 -1082 1 -1033 73
-1330 82 -332 231 -647 439 -925 386 -514 926 -858 1553 -989 241 -50 255 -51
1237 -51 1005 0 987 -1 1262 61 1072 238 1880 1137 2008 2232 13 111 15 829
15 5633 l0 5507 -22 3 c-13 2 -503 3 -1090 1z"/>
<path d="M18180 12646 c0 -3610 3 -6571 6 -6580 6 -15 299 -16 3225 -16 l3219
0 0 1990 0 1990 -22 5 c-13 3 -484 4 -1048 3 l-1025 -3 -7 -865 c-10 -1264 -9
-1258 -41 -1360 -36 -119 -70 -192 -133 -286 -163 -243 -436 -401 -732 -423
-251 -19 -465 2 -622 60 -289 107 -513 357 -598 666 l-27 98 -5 5640 -5 5640
-1092 3 -1093 2 0 -6564z"/>
<path d="M2225 14074 c-269 -50 -492 -163 -681 -346 -415 -402 -524 -1030
-266 -1543 79 -159 171 -278 300 -391 185 -162 375 -257 622 -310 118 -26 381
-26 500 -1 265 57 472 164 657 341 287 274 427 619 409 1006 -19 435 -226 803
-590 1049 -108 74 -280 146 -446 187 -95 23 -400 28 -505 8z"/>
</g>
</svg>
