<?xml version="1.0" standalone="no"?>
<!DOCTYPE svg PUBLIC "-//W3C//DTD SVG 20010904//EN"
 "http://www.w3.org/TR/2001/REC-SVG-20010904/DTD/svg10.dtd">
<svg version="1.0" xmlns="http://www.w3.org/2000/svg"
 width="2500.000000pt" height="2500.000000pt" viewBox="0 0 2500.000000 2500.000000"
 preserveAspectRatio="xMidYMid meet">
<metadata>
Created by potrace 1.16, written by Peter Selinger 2001-2019
</metadata>
<g transform="translate(0.000000,2500.000000) scale(0.100000,-0.100000)"
fill="#000000" stroke="none">
<path d="M3310 15479 c-418 -21 -832 -120 -1200 -287 -184 -83 -244 -116 -405
-220 -162 -105 -221 -150 -364 -276 -451 -397 -779 -963 -905 -1561 -49 -237
-60 -343 -60 -615 -1 -412 47 -702 179 -1065 213 -586 638 -1113 1165 -1440
444 -275 911 -427 1498 -487 189 -19 18379 -19 18562 0 508 53 900 164 1269
358 478 252 848 588 1127 1025 80 126 220 407 269 542 76 208 138 470 166 702
19 152 16 524 -5 694 -111 906 -586 1664 -1343 2143 -404 256 -851 407 -1423
480 -73 9 -2166 12 -9240 13 -5030 1 -9210 -1 -9290 -6z m18490 -742 c184 -26
400 -71 530 -113 694 -220 1214 -722 1434 -1384 82 -245 118 -483 118 -765 0
-853 -451 -1592 -1201 -1965 -249 -124 -487 -195 -831 -247 -109 -17 -624 -18
-9270 -21 -6448 -2 -9193 0 -9285 8 -467 38 -865 167 -1200 387 -161 106 -250
180 -375 310 -171 177 -275 328 -386 558 -150 312 -216 618 -217 1005 -1 213
15 356 59 539 184 755 726 1330 1481 1571 219 70 483 117 728 130 77 4 4224 6
9215 6 8529 -2 9083 -3 9200 -19z"/>
<path d="M22300 14091 c-101 -33 -172 -74 -241 -142 -131 -129 -186 -317 -148
-501 28 -132 124 -273 234 -343 28 -18 84 -45 125 -60 66 -25 88 -29 190 -29
99 0 124 4 182 26 181 68 289 179 350 358 28 83 30 227 4 315 -54 182 -200
325 -388 379 -77 22 -235 21 -308 -3z m260 -77 c208 -47 350 -231 350 -454 0
-184 -102 -344 -267 -423 -64 -30 -74 -32 -183 -32 -109 0 -118 2 -184 33 -89
42 -145 88 -188 154 -47 72 -68 129 -77 213 -24 207 75 393 252 476 107 50
186 59 297 33z"/>
<path d="M22250 13566 l0 -316 45 0 45 0 0 135 0 135 59 0 58 0 82 -135 83
-135 49 0 c37 0 48 3 43 13 -4 6 -43 67 -86 135 -43 67 -78 124 -78 127 0 3 8
5 17 5 38 0 100 41 122 81 19 34 23 52 19 105 -5 74 -24 107 -84 138 -34 18
-61 21 -206 24 l-168 4 0 -316z m315 218 c59 -28 68 -109 18 -156 -22 -20 -36
-23 -134 -26 l-109 -4 0 101 0 101 96 0 c67 0 106 -5 129 -16z"/>
<path d="M2780 12505 l0 -1405 430 0 430 0 0 982 c0 601 4 978 9 973 8 -9
1068 -1710 1175 -1887 l41 -68 432 0 433 0 0 1405 0 1405 -430 0 -430 0 -1
-982 c0 -928 -1 -982 -17 -959 -9 13 -283 454 -608 980 l-591 956 -436 3 -437
2 0 -1405z"/>
<path d="M6220 13625 l0 -285 420 0 420 0 0 285 0 285 -420 0 -420 0 0 -285z"/>
<path d="M18700 13395 c0 -283 -2 -515 -4 -515 -2 0 -50 22 -107 49 -179 85
-287 111 -466 111 -206 0 -392 -65 -571 -200 -97 -73 -166 -147 -237 -255 -69
-105 -90 -147 -127 -258 -54 -163 -51 -402 9 -592 102 -326 372 -576 713 -661
59 -15 111 -19 245 -18 155 0 178 3 260 27 50 15 134 49 188 75 l97 48 0 -53
0 -53 415 0 415 0 0 1405 0 1405 -415 0 -415 0 0 -515z m-209 -670 c110 -39
186 -135 209 -265 8 -44 10 -196 8 -460 -3 -382 -4 -397 -26 -451 -44 -109
-129 -177 -250 -199 -137 -24 -268 31 -338 142 -52 81 -55 122 -52 580 l3 423
29 63 c35 75 95 133 170 161 64 25 184 27 247 6z"/>
<path d="M10470 13430 l0 -190 -230 0 -230 0 0 -135 0 -135 228 -2 227 -3 3
-932 2 -933 420 0 420 0 0 935 0 935 230 0 230 0 0 135 0 135 -230 0 -230 0 0
190 0 190 -420 0 -420 0 0 -190z"/>
<path d="M20787 13070 c-279 -52 -510 -173 -692 -362 -136 -140 -218 -285
-262 -464 -25 -102 -22 -293 6 -408 97 -401 450 -709 932 -813 119 -26 429
-26 548 0 479 103 824 398 933 798 29 105 31 313 5 421 -106 432 -483 752
-982 833 -125 21 -363 18 -488 -5z m390 -231 c104 -50 170 -141 198 -274 21
-99 21 -938 1 -1036 -40 -186 -167 -299 -336 -299 -170 0 -296 112 -336 299
-10 51 -14 168 -14 521 0 483 5 542 49 629 45 86 139 163 222 181 62 13 167 3
216 -21z"/>
<path d="M12645 13060 c-393 -71 -729 -301 -883 -605 -79 -157 -108 -295 -99
-463 13 -236 100 -432 271 -611 131 -137 277 -233 460 -301 156 -59 273 -81
461 -87 180 -6 328 13 485 62 339 107 626 357 740 644 l20 51 -420 0 -420 0 0
-98 c0 -209 -66 -334 -210 -401 -168 -78 -370 -4 -450 164 -40 85 -51 181 -48
420 l3 190 798 3 798 2 -6 53 c-26 223 -96 393 -225 548 -190 227 -465 380
-779 433 -129 22 -365 20 -496 -4z m385 -226 c91 -34 174 -116 205 -204 18
-49 41 -279 32 -304 -6 -15 -46 -16 -359 -14 l-353 3 2 114 c3 136 21 206 70
279 50 73 141 131 227 144 44 7 134 -2 176 -18z"/>
<path d="M8865 13030 c-174 -37 -325 -112 -449 -221 l-46 -41 0 101 0 101
-420 0 -420 0 0 -935 0 -935 420 0 420 0 0 646 0 645 26 55 c54 114 180 204
311 222 178 24 333 -50 414 -200 l34 -63 3 -652 3 -653 414 0 415 0 3 428 c3
572 0 702 -19 802 -64 345 -306 591 -682 692 -113 30 -308 34 -427 8z"/>
<path d="M15740 13029 c-167 -35 -315 -107 -440 -215 l-55 -47 -3 102 -3 101
-414 0 -415 0 0 -935 0 -935 415 0 414 0 3 648 3 647 34 63 c129 237 468 289
653 100 25 -26 59 -74 75 -105 l28 -58 3 -647 3 -648 415 0 415 0 -3 603 c-4
586 -4 604 -26 682 -83 298 -286 509 -588 611 -173 58 -343 69 -514 33z"/>
<path d="M6220 12035 l0 -935 420 0 420 0 0 935 0 935 -420 0 -420 0 0 -935z"/>
</g>
</svg>
